<svg xmlns="http://www.w3.org/2000/svg" viewBox="0 0 1000 610" role="img" aria-labelledby="title desc">
  <title id="title">Projektorte von Butterfly Effects</title>
  <desc id="desc">Weltkarte mit Projektorten in Tansania, Niger, Bangladesch, Srebrenica und Gaziantep.</desc>
  <g fill="none" stroke="#91a5b5" stroke-width="2" stroke-linecap="round" stroke-linejoin="round" opacity=".38">
    <path d="M92 174l28-29 43-10 36-30 58-15 52 10 25 27 35 7 17 33-22 28-33 5-22 24-30 7-8 38-24 21-7 38-27 31-17-10-10-44-18-28-3-40-34-19-28-32 5-22z"/>
    <path d="M294 361l33 14 23 31 8 39-13 42-24 49-18-11-8-45-16-35-5-47z"/>
    <path d="M463 152l20-22 34 2 19-17 42 5 14 18 38 2 29 18 56 3 37 19 63 5 50 29-12 23-42 5-20 24-41 10-22 27-50-7-30 19-32-5-16-34-28-8-23-29-31-9-10-30-39-2-18-20z"/>
    <path d="M490 249l41 11 32 35 24 49-8 64-28 71-32 17-21-35-7-52-29-42-5-58z"/>
    <path d="M805 394l30-20 47 7 27 25-10 33-43 9-35-15z"/>
    <path d="M847 260l24 8 10 20-18 10-22-17z"/>
  </g>
  <g fill="none" stroke="#91a5b5" stroke-width="1.5" opacity=".16">
    <ellipse cx="535" cy="304" rx="405" ry="260"/>
  </g>
  <g font-family="Arial, Helvetica, sans-serif" font-size="13" font-weight="700" letter-spacing="1.2" fill="#dce6ed">
    <g transform="translate(535 225)"><circle r="15" fill="#9eb2c1" opacity=".12"/><circle r="5.5" fill="#f1d286"/><text x="14" y="5">SREBRENICA</text></g>
    <g transform="translate(576 247)"><circle r="15" fill="#9eb2c1" opacity=".12"/><circle r="5.5" fill="#f1d286"/><text x="14" y="5">GAZIANTEP</text></g>
    <g transform="translate(458 341)"><circle r="15" fill="#9eb2c1" opacity=".12"/><circle r="5.5" fill="#f1d286"/><text x="14" y="5">NIGER</text></g>
    <g transform="translate(562 455)"><circle r="15" fill="#9eb2c1" opacity=".12"/><circle r="5.5" fill="#f1d286"/><text x="14" y="5">TANSANIA</text></g>
    <g transform="translate(748 342)"><circle r="15" fill="#9eb2c1" opacity=".12"/><circle r="5.5" fill="#f1d286"/><text x="14" y="5">BANGLADESCH</text></g>
  </g>
</svg>
